<mxfile host="app.diagrams.net" modified="2023-05-13T01:48:08.844Z" agent="Mozilla/5.0 (Windows NT 10.0; Win64; x64) AppleWebKit/537.36 (KHTML, like Gecko) Chrome/113.0.0.0 Safari/537.36" etag="hkFfqO4_ZE8ukOrfIAtF" version="21.3.0" type="github">
  <diagram name="Page-1" id="42789a77-a242-8287-6e28-9cd8cfd52e62">
    <mxGraphModel dx="1143" dy="1520" grid="1" gridSize="10" guides="1" tooltips="1" connect="1" arrows="1" fold="1" page="1" pageScale="1" pageWidth="1100" pageHeight="850" background="none" math="0" shadow="0">
      <root>
        <mxCell id="0" />
        <mxCell id="1" parent="0" />
        <mxCell id="O-ry_Ej_ra9JanBjyChg-6" value="111" style="edgeStyle=orthogonalEdgeStyle;rounded=0;orthogonalLoop=1;jettySize=auto;html=1;" edge="1" parent="1" source="1ea317790d2ca983-1" target="1ea317790d2ca983-8">
          <mxGeometry relative="1" as="geometry">
            <Array as="points">
              <mxPoint x="367" y="-780" />
            </Array>
          </mxGeometry>
        </mxCell>
        <mxCell id="O-ry_Ej_ra9JanBjyChg-7" value="70" style="edgeStyle=orthogonalEdgeStyle;rounded=0;orthogonalLoop=1;jettySize=auto;html=1;" edge="1" parent="1" source="1ea317790d2ca983-1" target="O-ry_Ej_ra9JanBjyChg-4">
          <mxGeometry relative="1" as="geometry" />
        </mxCell>
        <mxCell id="1ea317790d2ca983-1" value="Lugoj" style="ellipse;whiteSpace=wrap;html=1;rounded=0;shadow=1;comic=0;labelBackgroundColor=none;strokeWidth=1;fontFamily=Verdana;fontSize=12;align=center;" parent="1" vertex="1">
          <mxGeometry x="503" y="-810" width="90" height="60" as="geometry" />
        </mxCell>
        <mxCell id="1ea317790d2ca983-8" value="Timisora" style="ellipse;whiteSpace=wrap;html=1;rounded=0;shadow=1;comic=0;labelBackgroundColor=none;strokeWidth=1;fontFamily=Verdana;fontSize=12;align=center;" parent="1" vertex="1">
          <mxGeometry x="330" y="-730" width="75" height="50" as="geometry" />
        </mxCell>
        <mxCell id="O-ry_Ej_ra9JanBjyChg-2" value="244 + 0 = 244" style="text;html=1;strokeColor=none;fillColor=none;align=center;verticalAlign=middle;whiteSpace=wrap;rounded=0;" vertex="1" parent="1">
          <mxGeometry x="503" y="-840" width="95" height="30" as="geometry" />
        </mxCell>
        <mxCell id="O-ry_Ej_ra9JanBjyChg-4" value="Mehadia" style="ellipse;whiteSpace=wrap;html=1;rounded=0;shadow=1;comic=0;labelBackgroundColor=none;strokeWidth=1;fontFamily=Verdana;fontSize=12;align=center;" vertex="1" parent="1">
          <mxGeometry x="680" y="-730" width="75" height="50" as="geometry" />
        </mxCell>
        <mxCell id="O-ry_Ej_ra9JanBjyChg-10" value="111 + 329 = 440&amp;nbsp;" style="text;html=1;align=center;verticalAlign=middle;whiteSpace=wrap;rounded=0;" vertex="1" parent="1">
          <mxGeometry x="312.5" y="-680" width="110" height="30" as="geometry" />
        </mxCell>
        <mxCell id="O-ry_Ej_ra9JanBjyChg-16" value="X" style="edgeStyle=orthogonalEdgeStyle;rounded=0;orthogonalLoop=1;jettySize=auto;html=1;entryX=0.5;entryY=0;entryDx=0;entryDy=0;" edge="1" parent="1" source="O-ry_Ej_ra9JanBjyChg-11" target="O-ry_Ej_ra9JanBjyChg-14">
          <mxGeometry relative="1" as="geometry" />
        </mxCell>
        <mxCell id="O-ry_Ej_ra9JanBjyChg-18" value="75" style="edgeStyle=orthogonalEdgeStyle;rounded=0;orthogonalLoop=1;jettySize=auto;html=1;" edge="1" parent="1" source="O-ry_Ej_ra9JanBjyChg-11" target="O-ry_Ej_ra9JanBjyChg-17">
          <mxGeometry relative="1" as="geometry" />
        </mxCell>
        <mxCell id="O-ry_Ej_ra9JanBjyChg-11" value="70 + 241 = 311&amp;nbsp;" style="text;html=1;strokeColor=#d6b656;fillColor=#fff2cc;align=center;verticalAlign=middle;whiteSpace=wrap;rounded=0;" vertex="1" parent="1">
          <mxGeometry x="662.5" y="-680" width="110" height="30" as="geometry" />
        </mxCell>
        <mxCell id="O-ry_Ej_ra9JanBjyChg-14" value="Lugoj" style="ellipse;whiteSpace=wrap;html=1;rounded=0;shadow=1;comic=0;labelBackgroundColor=none;strokeWidth=1;fontFamily=Verdana;fontSize=12;align=center;" vertex="1" parent="1">
          <mxGeometry x="570" y="-620" width="75" height="50" as="geometry" />
        </mxCell>
        <mxCell id="O-ry_Ej_ra9JanBjyChg-27" value="x" style="edgeStyle=orthogonalEdgeStyle;rounded=0;orthogonalLoop=1;jettySize=auto;html=1;entryX=0.5;entryY=1;entryDx=0;entryDy=0;" edge="1" parent="1" source="O-ry_Ej_ra9JanBjyChg-17" target="O-ry_Ej_ra9JanBjyChg-11">
          <mxGeometry relative="1" as="geometry" />
        </mxCell>
        <mxCell id="O-ry_Ej_ra9JanBjyChg-17" value="Dobreta" style="ellipse;whiteSpace=wrap;html=1;rounded=0;shadow=1;comic=0;labelBackgroundColor=none;strokeWidth=1;fontFamily=Verdana;fontSize=12;align=center;" vertex="1" parent="1">
          <mxGeometry x="820" y="-620" width="75" height="50" as="geometry" />
        </mxCell>
        <mxCell id="O-ry_Ej_ra9JanBjyChg-21" value="120" style="edgeStyle=orthogonalEdgeStyle;rounded=0;orthogonalLoop=1;jettySize=auto;html=1;entryX=0.5;entryY=0;entryDx=0;entryDy=0;" edge="1" parent="1" source="O-ry_Ej_ra9JanBjyChg-19" target="O-ry_Ej_ra9JanBjyChg-20">
          <mxGeometry relative="1" as="geometry" />
        </mxCell>
        <mxCell id="O-ry_Ej_ra9JanBjyChg-19" value="75 + 242 = 317&amp;nbsp;" style="text;html=1;align=center;verticalAlign=middle;whiteSpace=wrap;rounded=0;" vertex="1" parent="1">
          <mxGeometry x="802.5" y="-570" width="107.5" height="30" as="geometry" />
        </mxCell>
        <mxCell id="O-ry_Ej_ra9JanBjyChg-20" value="Craiova" style="ellipse;whiteSpace=wrap;html=1;rounded=0;shadow=1;comic=0;labelBackgroundColor=none;strokeWidth=1;fontFamily=Verdana;fontSize=12;align=center;" vertex="1" parent="1">
          <mxGeometry x="710" y="-500" width="75" height="50" as="geometry" />
        </mxCell>
        <mxCell id="O-ry_Ej_ra9JanBjyChg-25" style="edgeStyle=orthogonalEdgeStyle;rounded=0;orthogonalLoop=1;jettySize=auto;html=1;" edge="1" parent="1" source="O-ry_Ej_ra9JanBjyChg-22" target="O-ry_Ej_ra9JanBjyChg-23">
          <mxGeometry relative="1" as="geometry" />
        </mxCell>
        <mxCell id="O-ry_Ej_ra9JanBjyChg-29" value="146" style="edgeLabel;html=1;align=center;verticalAlign=middle;resizable=0;points=[];" vertex="1" connectable="0" parent="O-ry_Ej_ra9JanBjyChg-25">
          <mxGeometry x="0.3337" y="2" relative="1" as="geometry">
            <mxPoint as="offset" />
          </mxGeometry>
        </mxCell>
        <mxCell id="O-ry_Ej_ra9JanBjyChg-26" value="138" style="edgeStyle=orthogonalEdgeStyle;rounded=0;orthogonalLoop=1;jettySize=auto;html=1;entryX=0.5;entryY=0;entryDx=0;entryDy=0;" edge="1" parent="1" source="O-ry_Ej_ra9JanBjyChg-22" target="O-ry_Ej_ra9JanBjyChg-24">
          <mxGeometry relative="1" as="geometry" />
        </mxCell>
        <mxCell id="O-ry_Ej_ra9JanBjyChg-22" value="120 + 160 = 280" style="text;html=1;strokeColor=none;fillColor=none;align=center;verticalAlign=middle;whiteSpace=wrap;rounded=0;" vertex="1" parent="1">
          <mxGeometry x="696.25" y="-450" width="102.5" height="30" as="geometry" />
        </mxCell>
        <mxCell id="O-ry_Ej_ra9JanBjyChg-23" value="Rimnicu Vilcea" style="ellipse;whiteSpace=wrap;html=1;rounded=0;shadow=1;comic=0;labelBackgroundColor=none;strokeWidth=1;fontFamily=Verdana;fontSize=12;align=center;" vertex="1" parent="1">
          <mxGeometry x="530" y="-410" width="75" height="50" as="geometry" />
        </mxCell>
        <mxCell id="O-ry_Ej_ra9JanBjyChg-24" value="Pitesti" style="ellipse;whiteSpace=wrap;html=1;rounded=0;shadow=1;comic=0;labelBackgroundColor=none;strokeWidth=1;fontFamily=Verdana;fontSize=12;align=center;" vertex="1" parent="1">
          <mxGeometry x="890" y="-410" width="75" height="50" as="geometry" />
        </mxCell>
        <mxCell id="O-ry_Ej_ra9JanBjyChg-28" value="146 + 193 = 339" style="text;html=1;strokeColor=none;fillColor=none;align=center;verticalAlign=middle;whiteSpace=wrap;rounded=0;" vertex="1" parent="1">
          <mxGeometry x="516.25" y="-360" width="102.5" height="30" as="geometry" />
        </mxCell>
        <mxCell id="O-ry_Ej_ra9JanBjyChg-33" value="97" style="edgeStyle=orthogonalEdgeStyle;rounded=0;orthogonalLoop=1;jettySize=auto;html=1;entryX=0.558;entryY=-0.02;entryDx=0;entryDy=0;entryPerimeter=0;" edge="1" parent="1" source="O-ry_Ej_ra9JanBjyChg-30" target="O-ry_Ej_ra9JanBjyChg-31">
          <mxGeometry relative="1" as="geometry" />
        </mxCell>
        <mxCell id="O-ry_Ej_ra9JanBjyChg-34" value="101" style="edgeStyle=orthogonalEdgeStyle;rounded=0;orthogonalLoop=1;jettySize=auto;html=1;entryX=0.5;entryY=0;entryDx=0;entryDy=0;" edge="1" parent="1" source="O-ry_Ej_ra9JanBjyChg-30" target="O-ry_Ej_ra9JanBjyChg-32">
          <mxGeometry relative="1" as="geometry" />
        </mxCell>
        <mxCell id="O-ry_Ej_ra9JanBjyChg-30" value="138 + 98 = 236" style="text;html=1;strokeColor=#d6b656;fillColor=#fff2cc;align=center;verticalAlign=middle;whiteSpace=wrap;rounded=0;" vertex="1" parent="1">
          <mxGeometry x="876.25" y="-360" width="102.5" height="30" as="geometry" />
        </mxCell>
        <mxCell id="O-ry_Ej_ra9JanBjyChg-31" value="Rimnicu Vilcea" style="ellipse;whiteSpace=wrap;html=1;rounded=0;shadow=1;comic=0;labelBackgroundColor=none;strokeWidth=1;fontFamily=Verdana;fontSize=12;align=center;" vertex="1" parent="1">
          <mxGeometry x="731.25" y="-300" width="75" height="50" as="geometry" />
        </mxCell>
        <mxCell id="O-ry_Ej_ra9JanBjyChg-32" value="Bucharest" style="ellipse;whiteSpace=wrap;html=1;rounded=0;shadow=1;comic=0;labelBackgroundColor=none;strokeWidth=1;fontFamily=Verdana;fontSize=12;align=center;" vertex="1" parent="1">
          <mxGeometry x="1050" y="-300" width="75" height="50" as="geometry" />
        </mxCell>
        <mxCell id="O-ry_Ej_ra9JanBjyChg-35" value="97 + 193 = 290" style="text;html=1;strokeColor=none;fillColor=none;align=center;verticalAlign=middle;whiteSpace=wrap;rounded=0;" vertex="1" parent="1">
          <mxGeometry x="720" y="-250" width="102.5" height="30" as="geometry" />
        </mxCell>
        <mxCell id="O-ry_Ej_ra9JanBjyChg-36" value="101 + 0 = 101" style="text;html=1;strokeColor=#d6b656;fillColor=#fff2cc;align=center;verticalAlign=middle;whiteSpace=wrap;rounded=0;" vertex="1" parent="1">
          <mxGeometry x="1036.25" y="-250" width="102.5" height="30" as="geometry" />
        </mxCell>
        <mxCell id="O-ry_Ej_ra9JanBjyChg-38" value="111" style="edgeStyle=orthogonalEdgeStyle;rounded=0;orthogonalLoop=1;jettySize=auto;html=1;" edge="1" parent="1" source="O-ry_Ej_ra9JanBjyChg-40" target="O-ry_Ej_ra9JanBjyChg-41">
          <mxGeometry relative="1" as="geometry">
            <Array as="points">
              <mxPoint x="294.5" y="-80" />
            </Array>
          </mxGeometry>
        </mxCell>
        <mxCell id="O-ry_Ej_ra9JanBjyChg-39" value="70" style="edgeStyle=orthogonalEdgeStyle;rounded=0;orthogonalLoop=1;jettySize=auto;html=1;" edge="1" parent="1" source="O-ry_Ej_ra9JanBjyChg-40" target="O-ry_Ej_ra9JanBjyChg-43">
          <mxGeometry relative="1" as="geometry" />
        </mxCell>
        <mxCell id="O-ry_Ej_ra9JanBjyChg-40" value="Lugoj" style="ellipse;whiteSpace=wrap;html=1;rounded=0;shadow=1;comic=0;labelBackgroundColor=none;strokeWidth=1;fontFamily=Verdana;fontSize=12;align=center;" vertex="1" parent="1">
          <mxGeometry x="430.5" y="-110" width="90" height="60" as="geometry" />
        </mxCell>
        <mxCell id="O-ry_Ej_ra9JanBjyChg-41" value="Timisora" style="ellipse;whiteSpace=wrap;html=1;rounded=0;shadow=1;comic=0;labelBackgroundColor=none;strokeWidth=1;fontFamily=Verdana;fontSize=12;align=center;" vertex="1" parent="1">
          <mxGeometry x="257.5" y="-30" width="75" height="50" as="geometry" />
        </mxCell>
        <mxCell id="O-ry_Ej_ra9JanBjyChg-42" value="244 + 0 = 244" style="text;html=1;strokeColor=none;fillColor=none;align=center;verticalAlign=middle;whiteSpace=wrap;rounded=0;" vertex="1" parent="1">
          <mxGeometry x="430.5" y="-140" width="95" height="30" as="geometry" />
        </mxCell>
        <mxCell id="O-ry_Ej_ra9JanBjyChg-43" value="Mehadia" style="ellipse;whiteSpace=wrap;html=1;rounded=0;shadow=1;comic=0;labelBackgroundColor=none;strokeWidth=1;fontFamily=Verdana;fontSize=12;align=center;" vertex="1" parent="1">
          <mxGeometry x="607.5" y="-30" width="75" height="50" as="geometry" />
        </mxCell>
        <mxCell id="O-ry_Ej_ra9JanBjyChg-44" value="111 + 329 = 440&amp;nbsp;" style="text;html=1;align=center;verticalAlign=middle;whiteSpace=wrap;rounded=0;" vertex="1" parent="1">
          <mxGeometry x="240" y="20" width="110" height="30" as="geometry" />
        </mxCell>
        <mxCell id="O-ry_Ej_ra9JanBjyChg-45" value="X" style="edgeStyle=orthogonalEdgeStyle;rounded=0;orthogonalLoop=1;jettySize=auto;html=1;entryX=0.5;entryY=0;entryDx=0;entryDy=0;" edge="1" parent="1" source="O-ry_Ej_ra9JanBjyChg-47" target="O-ry_Ej_ra9JanBjyChg-48">
          <mxGeometry relative="1" as="geometry" />
        </mxCell>
        <mxCell id="O-ry_Ej_ra9JanBjyChg-46" value="75" style="edgeStyle=orthogonalEdgeStyle;rounded=0;orthogonalLoop=1;jettySize=auto;html=1;" edge="1" parent="1" source="O-ry_Ej_ra9JanBjyChg-47" target="O-ry_Ej_ra9JanBjyChg-50">
          <mxGeometry relative="1" as="geometry" />
        </mxCell>
        <mxCell id="O-ry_Ej_ra9JanBjyChg-47" value="70 + 241 = 311&amp;nbsp;" style="text;html=1;strokeColor=#d6b656;fillColor=#fff2cc;align=center;verticalAlign=middle;whiteSpace=wrap;rounded=0;" vertex="1" parent="1">
          <mxGeometry x="590" y="20" width="110" height="30" as="geometry" />
        </mxCell>
        <mxCell id="O-ry_Ej_ra9JanBjyChg-48" value="Lugoj" style="ellipse;whiteSpace=wrap;html=1;rounded=0;shadow=1;comic=0;labelBackgroundColor=none;strokeWidth=1;fontFamily=Verdana;fontSize=12;align=center;" vertex="1" parent="1">
          <mxGeometry x="497.5" y="80" width="75" height="50" as="geometry" />
        </mxCell>
        <mxCell id="O-ry_Ej_ra9JanBjyChg-49" value="x" style="edgeStyle=orthogonalEdgeStyle;rounded=0;orthogonalLoop=1;jettySize=auto;html=1;entryX=0.5;entryY=1;entryDx=0;entryDy=0;" edge="1" parent="1" source="O-ry_Ej_ra9JanBjyChg-50" target="O-ry_Ej_ra9JanBjyChg-47">
          <mxGeometry relative="1" as="geometry" />
        </mxCell>
        <mxCell id="O-ry_Ej_ra9JanBjyChg-50" value="Dobreta" style="ellipse;whiteSpace=wrap;html=1;rounded=0;shadow=1;comic=0;labelBackgroundColor=none;strokeWidth=1;fontFamily=Verdana;fontSize=12;align=center;" vertex="1" parent="1">
          <mxGeometry x="785" y="70" width="75" height="50" as="geometry" />
        </mxCell>
        <mxCell id="O-ry_Ej_ra9JanBjyChg-51" value="120" style="edgeStyle=orthogonalEdgeStyle;rounded=0;orthogonalLoop=1;jettySize=auto;html=1;entryX=0.5;entryY=0;entryDx=0;entryDy=0;" edge="1" parent="1" source="O-ry_Ej_ra9JanBjyChg-52" target="O-ry_Ej_ra9JanBjyChg-53">
          <mxGeometry relative="1" as="geometry" />
        </mxCell>
        <mxCell id="O-ry_Ej_ra9JanBjyChg-52" value="75 + 242 = 317&amp;nbsp;" style="text;html=1;align=center;verticalAlign=middle;whiteSpace=wrap;rounded=0;" vertex="1" parent="1">
          <mxGeometry x="730" y="130" width="107.5" height="30" as="geometry" />
        </mxCell>
        <mxCell id="O-ry_Ej_ra9JanBjyChg-53" value="Craiova" style="ellipse;whiteSpace=wrap;html=1;rounded=0;shadow=1;comic=0;labelBackgroundColor=none;strokeWidth=1;fontFamily=Verdana;fontSize=12;align=center;" vertex="1" parent="1">
          <mxGeometry x="637.5" y="250" width="75" height="50" as="geometry" />
        </mxCell>
        <mxCell id="O-ry_Ej_ra9JanBjyChg-54" style="edgeStyle=orthogonalEdgeStyle;rounded=0;orthogonalLoop=1;jettySize=auto;html=1;" edge="1" parent="1" source="O-ry_Ej_ra9JanBjyChg-57" target="O-ry_Ej_ra9JanBjyChg-58">
          <mxGeometry relative="1" as="geometry" />
        </mxCell>
        <mxCell id="O-ry_Ej_ra9JanBjyChg-55" value="146" style="edgeLabel;html=1;align=center;verticalAlign=middle;resizable=0;points=[];" vertex="1" connectable="0" parent="O-ry_Ej_ra9JanBjyChg-54">
          <mxGeometry x="0.3337" y="2" relative="1" as="geometry">
            <mxPoint as="offset" />
          </mxGeometry>
        </mxCell>
        <mxCell id="O-ry_Ej_ra9JanBjyChg-56" value="138" style="edgeStyle=orthogonalEdgeStyle;rounded=0;orthogonalLoop=1;jettySize=auto;html=1;entryX=0.5;entryY=0;entryDx=0;entryDy=0;exitX=0.5;exitY=1;exitDx=0;exitDy=0;" edge="1" parent="1" source="O-ry_Ej_ra9JanBjyChg-57" target="O-ry_Ej_ra9JanBjyChg-59">
          <mxGeometry relative="1" as="geometry" />
        </mxCell>
        <mxCell id="O-ry_Ej_ra9JanBjyChg-69" value="120" style="edgeStyle=orthogonalEdgeStyle;rounded=0;orthogonalLoop=1;jettySize=auto;html=1;entryX=0.5;entryY=0;entryDx=0;entryDy=0;" edge="1" parent="1" source="O-ry_Ej_ra9JanBjyChg-57" target="O-ry_Ej_ra9JanBjyChg-68">
          <mxGeometry relative="1" as="geometry" />
        </mxCell>
        <mxCell id="O-ry_Ej_ra9JanBjyChg-57" value="403 + 160 = 563" style="text;html=1;strokeColor=none;fillColor=none;align=center;verticalAlign=middle;whiteSpace=wrap;rounded=0;" vertex="1" parent="1">
          <mxGeometry x="623.75" y="300" width="102.5" height="30" as="geometry" />
        </mxCell>
        <mxCell id="O-ry_Ej_ra9JanBjyChg-58" value="Rimnicu Vilcea" style="ellipse;whiteSpace=wrap;html=1;rounded=0;shadow=1;comic=0;labelBackgroundColor=none;strokeWidth=1;fontFamily=Verdana;fontSize=12;align=center;" vertex="1" parent="1">
          <mxGeometry x="457.5" y="340" width="75" height="50" as="geometry" />
        </mxCell>
        <mxCell id="O-ry_Ej_ra9JanBjyChg-59" value="Pitesti" style="ellipse;whiteSpace=wrap;html=1;rounded=0;shadow=1;comic=0;labelBackgroundColor=none;strokeWidth=1;fontFamily=Verdana;fontSize=12;align=center;" vertex="1" parent="1">
          <mxGeometry x="638.75" y="410" width="75" height="50" as="geometry" />
        </mxCell>
        <mxCell id="O-ry_Ej_ra9JanBjyChg-60" value="146 + 193 = 339" style="text;html=1;strokeColor=none;fillColor=none;align=center;verticalAlign=middle;whiteSpace=wrap;rounded=0;" vertex="1" parent="1">
          <mxGeometry x="443.75" y="390" width="102.5" height="30" as="geometry" />
        </mxCell>
        <mxCell id="O-ry_Ej_ra9JanBjyChg-61" value="97" style="edgeStyle=orthogonalEdgeStyle;rounded=0;orthogonalLoop=1;jettySize=auto;html=1;entryX=0.558;entryY=-0.02;entryDx=0;entryDy=0;entryPerimeter=0;" edge="1" parent="1" source="O-ry_Ej_ra9JanBjyChg-63" target="O-ry_Ej_ra9JanBjyChg-64">
          <mxGeometry x="0.005" relative="1" as="geometry">
            <mxPoint as="offset" />
          </mxGeometry>
        </mxCell>
        <mxCell id="O-ry_Ej_ra9JanBjyChg-62" value="101" style="edgeStyle=orthogonalEdgeStyle;rounded=0;orthogonalLoop=1;jettySize=auto;html=1;entryX=0.5;entryY=0;entryDx=0;entryDy=0;" edge="1" parent="1" source="O-ry_Ej_ra9JanBjyChg-63" target="O-ry_Ej_ra9JanBjyChg-65">
          <mxGeometry relative="1" as="geometry" />
        </mxCell>
        <mxCell id="O-ry_Ej_ra9JanBjyChg-63" value="138 + 98 = 236" style="text;html=1;strokeColor=#d6b656;fillColor=#fff2cc;align=center;verticalAlign=middle;whiteSpace=wrap;rounded=0;" vertex="1" parent="1">
          <mxGeometry x="625" y="460" width="102.5" height="30" as="geometry" />
        </mxCell>
        <mxCell id="O-ry_Ej_ra9JanBjyChg-64" value="Rimnicu Vilcea" style="ellipse;whiteSpace=wrap;html=1;rounded=0;shadow=1;comic=0;labelBackgroundColor=none;strokeWidth=1;fontFamily=Verdana;fontSize=12;align=center;" vertex="1" parent="1">
          <mxGeometry x="480" y="520" width="75" height="50" as="geometry" />
        </mxCell>
        <mxCell id="O-ry_Ej_ra9JanBjyChg-65" value="Bucharest" style="ellipse;whiteSpace=wrap;html=1;rounded=0;shadow=1;comic=0;labelBackgroundColor=none;strokeWidth=1;fontFamily=Verdana;fontSize=12;align=center;" vertex="1" parent="1">
          <mxGeometry x="798.75" y="520" width="75" height="50" as="geometry" />
        </mxCell>
        <mxCell id="O-ry_Ej_ra9JanBjyChg-66" value="500 + 193 = 693" style="text;html=1;strokeColor=none;fillColor=none;align=center;verticalAlign=middle;whiteSpace=wrap;rounded=0;" vertex="1" parent="1">
          <mxGeometry x="466.25" y="570" width="102.5" height="30" as="geometry" />
        </mxCell>
        <mxCell id="O-ry_Ej_ra9JanBjyChg-67" value="504 + 0 = 504" style="text;html=1;strokeColor=#d6b656;fillColor=#fff2cc;align=center;verticalAlign=middle;whiteSpace=wrap;rounded=0;" vertex="1" parent="1">
          <mxGeometry x="785" y="570" width="102.5" height="30" as="geometry" />
        </mxCell>
        <mxCell id="O-ry_Ej_ra9JanBjyChg-68" value="Dobreta" style="ellipse;whiteSpace=wrap;html=1;rounded=0;shadow=1;comic=0;labelBackgroundColor=none;strokeWidth=1;fontFamily=Verdana;fontSize=12;align=center;" vertex="1" parent="1">
          <mxGeometry x="860" y="340" width="75" height="50" as="geometry" />
        </mxCell>
        <mxCell id="O-ry_Ej_ra9JanBjyChg-70" style="edgeStyle=orthogonalEdgeStyle;rounded=0;orthogonalLoop=1;jettySize=auto;html=1;entryX=0.574;entryY=0.014;entryDx=0;entryDy=0;entryPerimeter=0;exitX=1;exitY=0.5;exitDx=0;exitDy=0;" edge="1" parent="1" target="O-ry_Ej_ra9JanBjyChg-72">
          <mxGeometry relative="1" as="geometry">
            <mxPoint x="525.4999999999973" y="690" as="sourcePoint" />
          </mxGeometry>
        </mxCell>
        <mxCell id="O-ry_Ej_ra9JanBjyChg-71" style="edgeStyle=orthogonalEdgeStyle;rounded=0;orthogonalLoop=1;jettySize=auto;html=1;entryX=0.5;entryY=0;entryDx=0;entryDy=0;" edge="1" parent="1" target="O-ry_Ej_ra9JanBjyChg-73">
          <mxGeometry relative="1" as="geometry">
            <mxPoint x="442.5" y="690" as="sourcePoint" />
          </mxGeometry>
        </mxCell>
        <mxCell id="O-ry_Ej_ra9JanBjyChg-72" value="Mehadia" style="ellipse;whiteSpace=wrap;html=1;rounded=0;shadow=1;comic=0;labelBackgroundColor=none;strokeWidth=1;fontFamily=Verdana;fontSize=12;align=center;fillColor=#dae8fc;strokeColor=#6c8ebf;" vertex="1" parent="1">
          <mxGeometry x="677.5" y="730" width="75" height="50" as="geometry" />
        </mxCell>
        <mxCell id="O-ry_Ej_ra9JanBjyChg-73" value="Timisora" style="ellipse;whiteSpace=wrap;html=1;rounded=0;shadow=1;comic=0;labelBackgroundColor=none;strokeWidth=1;fontFamily=Verdana;fontSize=12;align=center;" vertex="1" parent="1">
          <mxGeometry x="192.5" y="730" width="75" height="50" as="geometry" />
        </mxCell>
        <mxCell id="O-ry_Ej_ra9JanBjyChg-74" value="Lugoj" style="ellipse;whiteSpace=wrap;html=1;rounded=0;shadow=1;comic=0;labelBackgroundColor=none;strokeWidth=1;fontFamily=Verdana;fontSize=12;align=center;" vertex="1" parent="1">
          <mxGeometry x="520" y="820" width="82.5" height="50" as="geometry" />
        </mxCell>
        <mxCell id="O-ry_Ej_ra9JanBjyChg-75" value="75" style="edgeStyle=orthogonalEdgeStyle;rounded=0;orthogonalLoop=1;jettySize=auto;html=1;entryX=0.5;entryY=0;entryDx=0;entryDy=0;" edge="1" parent="1" source="O-ry_Ej_ra9JanBjyChg-77" target="O-ry_Ej_ra9JanBjyChg-89">
          <mxGeometry relative="1" as="geometry" />
        </mxCell>
        <mxCell id="O-ry_Ej_ra9JanBjyChg-76" value="120" style="edgeStyle=orthogonalEdgeStyle;rounded=0;orthogonalLoop=1;jettySize=auto;html=1;entryX=0.5;entryY=0;entryDx=0;entryDy=0;" edge="1" parent="1" source="O-ry_Ej_ra9JanBjyChg-77" target="O-ry_Ej_ra9JanBjyChg-90">
          <mxGeometry relative="1" as="geometry" />
        </mxCell>
        <mxCell id="O-ry_Ej_ra9JanBjyChg-77" value="Dobreta" style="ellipse;whiteSpace=wrap;html=1;rounded=0;shadow=1;comic=0;labelBackgroundColor=none;strokeWidth=1;fontFamily=Verdana;fontSize=12;align=center;fillColor=#dae8fc;strokeColor=#6c8ebf;" vertex="1" parent="1">
          <mxGeometry x="842.5" y="815" width="75" height="50" as="geometry" />
        </mxCell>
        <mxCell id="O-ry_Ej_ra9JanBjyChg-78" value="70" style="edgeStyle=orthogonalEdgeStyle;rounded=0;orthogonalLoop=1;jettySize=auto;html=1;entryX=0.5;entryY=0;entryDx=0;entryDy=0;" edge="1" parent="1" source="O-ry_Ej_ra9JanBjyChg-72" target="O-ry_Ej_ra9JanBjyChg-74">
          <mxGeometry relative="1" as="geometry" />
        </mxCell>
        <mxCell id="O-ry_Ej_ra9JanBjyChg-79" value="75" style="edgeStyle=orthogonalEdgeStyle;rounded=0;orthogonalLoop=1;jettySize=auto;html=1;entryX=0.5;entryY=0;entryDx=0;entryDy=0;" edge="1" parent="1" source="O-ry_Ej_ra9JanBjyChg-72" target="O-ry_Ej_ra9JanBjyChg-77">
          <mxGeometry relative="1" as="geometry" />
        </mxCell>
        <mxCell id="O-ry_Ej_ra9JanBjyChg-80" value="111" style="edgeStyle=orthogonalEdgeStyle;rounded=0;orthogonalLoop=1;jettySize=auto;html=1;entryX=0.5;entryY=0;entryDx=0;entryDy=0;" edge="1" parent="1" source="O-ry_Ej_ra9JanBjyChg-82" target="O-ry_Ej_ra9JanBjyChg-84">
          <mxGeometry relative="1" as="geometry" />
        </mxCell>
        <mxCell id="O-ry_Ej_ra9JanBjyChg-81" value="70" style="edgeStyle=orthogonalEdgeStyle;rounded=0;orthogonalLoop=1;jettySize=auto;html=1;entryX=0.5;entryY=0;entryDx=0;entryDy=0;" edge="1" parent="1" source="O-ry_Ej_ra9JanBjyChg-82" target="O-ry_Ej_ra9JanBjyChg-85">
          <mxGeometry relative="1" as="geometry" />
        </mxCell>
        <mxCell id="O-ry_Ej_ra9JanBjyChg-82" value="Lugoj" style="ellipse;whiteSpace=wrap;html=1;rounded=0;shadow=1;comic=0;labelBackgroundColor=none;strokeWidth=1;fontFamily=Verdana;fontSize=12;align=center;" vertex="1" parent="1">
          <mxGeometry x="520" y="820" width="82.5" height="50" as="geometry" />
        </mxCell>
        <mxCell id="O-ry_Ej_ra9JanBjyChg-83" value="Lugoj" style="ellipse;whiteSpace=wrap;html=1;rounded=0;shadow=1;comic=0;labelBackgroundColor=none;strokeWidth=1;fontFamily=Verdana;fontSize=12;align=center;fillColor=#dae8fc;strokeColor=#6c8ebf;" vertex="1" parent="1">
          <mxGeometry x="440" y="660" width="90" height="60" as="geometry" />
        </mxCell>
        <mxCell id="O-ry_Ej_ra9JanBjyChg-84" value="Timisora" style="ellipse;whiteSpace=wrap;html=1;rounded=0;shadow=1;comic=0;labelBackgroundColor=none;strokeWidth=1;fontFamily=Verdana;fontSize=12;align=center;" vertex="1" parent="1">
          <mxGeometry x="387.5" y="880" width="75" height="50" as="geometry" />
        </mxCell>
        <mxCell id="O-ry_Ej_ra9JanBjyChg-85" value="Mehadia" style="ellipse;whiteSpace=wrap;html=1;rounded=0;shadow=1;comic=0;labelBackgroundColor=none;strokeWidth=1;fontFamily=Verdana;fontSize=12;align=center;" vertex="1" parent="1">
          <mxGeometry x="642.5" y="880" width="75" height="50" as="geometry" />
        </mxCell>
        <mxCell id="O-ry_Ej_ra9JanBjyChg-86" value="120" style="edgeStyle=orthogonalEdgeStyle;rounded=0;orthogonalLoop=1;jettySize=auto;html=1;" edge="1" parent="1" source="O-ry_Ej_ra9JanBjyChg-89" target="O-ry_Ej_ra9JanBjyChg-96">
          <mxGeometry relative="1" as="geometry" />
        </mxCell>
        <mxCell id="O-ry_Ej_ra9JanBjyChg-87" value="138" style="edgeStyle=orthogonalEdgeStyle;rounded=0;orthogonalLoop=1;jettySize=auto;html=1;" edge="1" parent="1" source="O-ry_Ej_ra9JanBjyChg-89" target="O-ry_Ej_ra9JanBjyChg-95">
          <mxGeometry relative="1" as="geometry" />
        </mxCell>
        <mxCell id="O-ry_Ej_ra9JanBjyChg-88" value="146" style="edgeStyle=orthogonalEdgeStyle;rounded=0;orthogonalLoop=1;jettySize=auto;html=1;entryX=0.5;entryY=0;entryDx=0;entryDy=0;" edge="1" parent="1" source="O-ry_Ej_ra9JanBjyChg-89" target="O-ry_Ej_ra9JanBjyChg-91">
          <mxGeometry relative="1" as="geometry" />
        </mxCell>
        <mxCell id="O-ry_Ej_ra9JanBjyChg-89" value="Craiova" style="ellipse;whiteSpace=wrap;html=1;rounded=0;shadow=1;comic=0;labelBackgroundColor=none;strokeWidth=1;fontFamily=Verdana;fontSize=12;align=center;fillColor=#dae8fc;strokeColor=#6c8ebf;" vertex="1" parent="1">
          <mxGeometry x="737.5" y="940" width="75" height="50" as="geometry" />
        </mxCell>
        <mxCell id="O-ry_Ej_ra9JanBjyChg-90" value="Mehadia" style="ellipse;whiteSpace=wrap;html=1;rounded=0;shadow=1;comic=0;labelBackgroundColor=none;strokeWidth=1;fontFamily=Verdana;fontSize=12;align=center;" vertex="1" parent="1">
          <mxGeometry x="1030" y="920" width="75" height="50" as="geometry" />
        </mxCell>
        <mxCell id="O-ry_Ej_ra9JanBjyChg-91" value="Rimnicu Vilcea" style="ellipse;whiteSpace=wrap;html=1;rounded=0;shadow=1;comic=0;labelBackgroundColor=none;strokeWidth=1;fontFamily=Verdana;fontSize=12;align=center;" vertex="1" parent="1">
          <mxGeometry x="536.25" y="1055" width="75" height="50" as="geometry" />
        </mxCell>
        <mxCell id="O-ry_Ej_ra9JanBjyChg-92" value="138" style="edgeStyle=orthogonalEdgeStyle;rounded=0;orthogonalLoop=1;jettySize=auto;html=1;entryX=0.5;entryY=0;entryDx=0;entryDy=0;" edge="1" parent="1" source="O-ry_Ej_ra9JanBjyChg-95" target="O-ry_Ej_ra9JanBjyChg-98">
          <mxGeometry relative="1" as="geometry" />
        </mxCell>
        <mxCell id="O-ry_Ej_ra9JanBjyChg-93" value="101" style="edgeStyle=orthogonalEdgeStyle;rounded=0;orthogonalLoop=1;jettySize=auto;html=1;entryX=0.5;entryY=0;entryDx=0;entryDy=0;" edge="1" parent="1" source="O-ry_Ej_ra9JanBjyChg-95" target="O-ry_Ej_ra9JanBjyChg-99">
          <mxGeometry relative="1" as="geometry" />
        </mxCell>
        <mxCell id="O-ry_Ej_ra9JanBjyChg-94" value="97" style="edgeStyle=orthogonalEdgeStyle;rounded=0;orthogonalLoop=1;jettySize=auto;html=1;entryX=0.5;entryY=0;entryDx=0;entryDy=0;" edge="1" parent="1" source="O-ry_Ej_ra9JanBjyChg-95" target="O-ry_Ej_ra9JanBjyChg-97">
          <mxGeometry x="-0.248" relative="1" as="geometry">
            <mxPoint as="offset" />
          </mxGeometry>
        </mxCell>
        <mxCell id="O-ry_Ej_ra9JanBjyChg-95" value="Pitesti" style="ellipse;whiteSpace=wrap;html=1;rounded=0;shadow=1;comic=0;labelBackgroundColor=none;strokeWidth=1;fontFamily=Verdana;fontSize=12;align=center;fillColor=#dae8fc;strokeColor=#6c8ebf;" vertex="1" parent="1">
          <mxGeometry x="737.5" y="1105" width="75" height="50" as="geometry" />
        </mxCell>
        <mxCell id="O-ry_Ej_ra9JanBjyChg-96" value="Dobreta" style="ellipse;whiteSpace=wrap;html=1;rounded=0;shadow=1;comic=0;labelBackgroundColor=none;strokeWidth=1;fontFamily=Verdana;fontSize=12;align=center;" vertex="1" parent="1">
          <mxGeometry x="932.5" y="1055" width="75" height="50" as="geometry" />
        </mxCell>
        <mxCell id="O-ry_Ej_ra9JanBjyChg-97" value="Rimnicu Vilcea" style="ellipse;whiteSpace=wrap;html=1;rounded=0;shadow=1;comic=0;labelBackgroundColor=none;strokeWidth=1;fontFamily=Verdana;fontSize=12;align=center;" vertex="1" parent="1">
          <mxGeometry x="517.5" y="1260" width="75" height="50" as="geometry" />
        </mxCell>
        <mxCell id="O-ry_Ej_ra9JanBjyChg-98" value="Craiova" style="ellipse;whiteSpace=wrap;html=1;rounded=0;shadow=1;comic=0;labelBackgroundColor=none;strokeWidth=1;fontFamily=Verdana;fontSize=12;align=center;" vertex="1" parent="1">
          <mxGeometry x="737.5" y="1260" width="75" height="50" as="geometry" />
        </mxCell>
        <mxCell id="O-ry_Ej_ra9JanBjyChg-99" value="Bucharest" style="ellipse;whiteSpace=wrap;html=1;rounded=0;shadow=1;comic=0;labelBackgroundColor=none;strokeWidth=1;fontFamily=Verdana;fontSize=12;align=center;" vertex="1" parent="1">
          <mxGeometry x="1012.5" y="1260" width="75" height="50" as="geometry" />
        </mxCell>
        <mxCell id="O-ry_Ej_ra9JanBjyChg-100" value="500 + 193 = 693&amp;nbsp;&amp;nbsp;" style="text;html=1;align=center;verticalAlign=middle;whiteSpace=wrap;rounded=0;" vertex="1" parent="1">
          <mxGeometry x="501.25" y="1310" width="110" height="30" as="geometry" />
        </mxCell>
        <mxCell id="O-ry_Ej_ra9JanBjyChg-101" value="541 + 160 = 701&amp;nbsp;&amp;nbsp;" style="text;html=1;align=center;verticalAlign=middle;whiteSpace=wrap;rounded=0;" vertex="1" parent="1">
          <mxGeometry x="725" y="1310" width="110" height="30" as="geometry" />
        </mxCell>
        <mxCell id="O-ry_Ej_ra9JanBjyChg-102" value="504 + 0 = 504&amp;nbsp;&amp;nbsp;" style="text;html=1;align=center;verticalAlign=middle;whiteSpace=wrap;rounded=0;fillColor=#fff2cc;strokeColor=#d6b656;" vertex="1" parent="1">
          <mxGeometry x="995" y="1310" width="110" height="30" as="geometry" />
        </mxCell>
        <mxCell id="O-ry_Ej_ra9JanBjyChg-103" value="" style="triangle;whiteSpace=wrap;html=1;fillColor=#f8cecc;strokeColor=#b85450;" vertex="1" parent="1">
          <mxGeometry x="995" y="1277.5" width="15" height="15" as="geometry" />
        </mxCell>
        <mxCell id="O-ry_Ej_ra9JanBjyChg-104" value="111 + 329 = 440&amp;nbsp;" style="text;html=1;align=center;verticalAlign=middle;whiteSpace=wrap;rounded=0;" vertex="1" parent="1">
          <mxGeometry x="175" y="780" width="110" height="30" as="geometry" />
        </mxCell>
        <mxCell id="O-ry_Ej_ra9JanBjyChg-105" value="251 + 329 = 580&amp;nbsp;" style="text;html=1;align=center;verticalAlign=middle;whiteSpace=wrap;rounded=0;" vertex="1" parent="1">
          <mxGeometry x="370" y="930" width="110" height="30" as="geometry" />
        </mxCell>
        <mxCell id="O-ry_Ej_ra9JanBjyChg-106" value="210 + 241 = 451&amp;nbsp;&amp;nbsp;" style="text;html=1;align=center;verticalAlign=middle;whiteSpace=wrap;rounded=0;" vertex="1" parent="1">
          <mxGeometry x="625" y="930" width="110" height="30" as="geometry" />
        </mxCell>
        <mxCell id="O-ry_Ej_ra9JanBjyChg-107" value="265 + 241 = 506&amp;nbsp;&amp;nbsp;" style="text;html=1;align=center;verticalAlign=middle;whiteSpace=wrap;rounded=0;" vertex="1" parent="1">
          <mxGeometry x="1017.5" y="970" width="110" height="30" as="geometry" />
        </mxCell>
        <mxCell id="O-ry_Ej_ra9JanBjyChg-108" value="385 + 242 = 627&amp;nbsp;&amp;nbsp;" style="text;html=1;align=center;verticalAlign=middle;whiteSpace=wrap;rounded=0;" vertex="1" parent="1">
          <mxGeometry x="917.5" y="1100" width="110" height="30" as="geometry" />
        </mxCell>
        <mxCell id="O-ry_Ej_ra9JanBjyChg-109" value="411 + 193 = 604&amp;nbsp;&amp;nbsp;" style="text;html=1;align=center;verticalAlign=middle;whiteSpace=wrap;rounded=0;" vertex="1" parent="1">
          <mxGeometry x="520.5" y="1100" width="110" height="30" as="geometry" />
        </mxCell>
      </root>
    </mxGraphModel>
  </diagram>
</mxfile>
